<?xml version="1.0" encoding="utf-8"?>
<!-- Generator: Adobe Illustrator 28.2.0, SVG Export Plug-In . SVG Version: 6.00 Build 0)  -->
<svg version="1.1" id="Layer_1" xmlns="http://www.w3.org/2000/svg" xmlns:xlink="http://www.w3.org/1999/xlink" x="0px" y="0px"
	 viewBox="0 0 800 800" style="enable-background:new 0 0 800 800;" xml:space="preserve">
<style type="text/css">
	.st0{fill-rule:evenodd;clip-rule:evenodd;fill:url(#polygon5_00000111185638711264334980000015365791567565022130_);}
	.st1{fill-rule:evenodd;clip-rule:evenodd;fill:url(#polygon7_00000178173382879173412240000002204530073291330721_);}
	.st2{fill-rule:evenodd;clip-rule:evenodd;fill:url(#polygon9_00000000912205366308507790000015800673443175750539_);}
	.st3{fill-rule:evenodd;clip-rule:evenodd;fill:#FFFFFF;}
	.st4{fill:#FFFFFF;}
</style>
<rect width="800" height="800"/>
<g id="g3">
	
		<linearGradient id="polygon5_00000100346086439841499810000002852715564625388680_" gradientUnits="userSpaceOnUse" x1="127.8512" y1="391.3644" x2="127.8512" y2="516.04" gradientTransform="matrix(1 0 0 -1 0 801.36)">
		<stop  offset="0" style="stop-color:#23BCEE"/>
		<stop  offset="7.000000e-02" style="stop-color:#24B0E5"/>
		<stop  offset="0.36" style="stop-color:#2785C3"/>
		<stop  offset="0.63" style="stop-color:#2965AA"/>
		<stop  offset="0.85" style="stop-color:#2B529B"/>
		<stop  offset="1" style="stop-color:#2B4B96"/>
	</linearGradient>
	
		<polygon id="polygon5" style="fill-rule:evenodd;clip-rule:evenodd;fill:url(#polygon5_00000100346086439841499810000002852715564625388680_);" points="
		15.6,285.3 15.6,294.1 232.2,294.1 232.2,342.9 15.6,342.9 15.6,410 24.3,410 24.3,351.7 240.1,351.7 240.1,285.3 	"/>
	
		<linearGradient id="polygon7_00000085930012959596505320000012015815787049697711_" gradientUnits="userSpaceOnUse" x1="625.3858" y1="395.5837" x2="625.3858" y2="512.7145" gradientTransform="matrix(1 0 0 -1 0 801.36)">
		<stop  offset="0" style="stop-color:#09B2CF"/>
		<stop  offset="1" style="stop-color:#304E97"/>
	</linearGradient>
	
		<polygon id="polygon7" style="fill-rule:evenodd;clip-rule:evenodd;fill:url(#polygon7_00000085930012959596505320000012015815787049697711_);" points="
		512.7,285.3 512.7,294.1 729.3,294.1 729.3,342.9 512.7,342.9 512.7,410 738.1,410 738.1,401.2 522.3,401.2 522.3,351.7 
		738.1,351.7 738.1,285.3 	"/>
	
		<linearGradient id="polygon9_00000158728469400441451520000015349818395288116144_" gradientUnits="userSpaceOnUse" x1="359.6332" y1="391.3644" x2="359.6332" y2="516.04" gradientTransform="matrix(1 0 0 -1 0 801.36)">
		<stop  offset="0" style="stop-color:#09B2CF"/>
		<stop  offset="0.2" style="stop-color:#178FBB"/>
		<stop  offset="0.4" style="stop-color:#2273AB"/>
		<stop  offset="0.6" style="stop-color:#2A5EA0"/>
		<stop  offset="0.8" style="stop-color:#2E5299"/>
		<stop  offset="1" style="stop-color:#304E97"/>
	</linearGradient>
	
		<polygon id="polygon9" style="fill-rule:evenodd;clip-rule:evenodd;fill:url(#polygon9_00000158728469400441451520000015349818395288116144_);" points="
		355.2,285.3 355.2,401.2 240.1,401.2 240.1,410 364.8,410 364.8,294.1 479.1,294.1 479.1,285.3 	"/>
	<polygon id="polygon11" class="st3" points="761.3,397.2 757.3,397.2 757.3,395.6 768.5,395.6 768.5,397.2 763.7,397.2 763.7,410 
		761.3,410 	"/>
	<polygon id="polygon13" class="st3" points="773.3,395.6 777.2,407.6 781.3,395.6 784.4,395.6 784.4,410 782.8,410 782.8,398 
		778.9,410 776.4,410 772.5,398 772.5,410 770,410 770,395.6 	"/>
</g>
<g id="layer1">
	<path id="path3003" class="st4" d="M197.9,453.9v43.9h6.9v-39.7h6.3c0,0,4.6,0,6.2,2.1c1.3,1.8,1.6,4.9,1.6,7.1
		c0,2.2-0.2,5.8-1,7.1c-1.2,2-3.1,2.4-4.8,2.4h-4.2v3.9h6c0,0,5.4,0.2,7.8-2.2c2.9-2.9,3.6-6.8,3.6-12.1c0-4.8-1.7-9.6-5.3-11.2
		c-2.9-1.3-8.2-1.3-8.2-1.3L197.9,453.9"/>
	<path id="path3005" class="st4" d="M231.7,497.8h6.8v-43.9h-6.9L231.7,497.8L231.7,497.8z"/>
	<path id="path3007" class="st4" d="M275.1,464.2l12.5,32.9l-7.2,17.6h5.7l20.7-50.5h-6.4l-9,24.6l-8.4-24.6H275.1"/>
	<path id="path3009" class="st4" d="M312,497.6v-4.2c0,0,7.2,0.3,8.8,0.3c3.4,0,5-0.7,6.3-2.1c0.7-0.8,1.4-4.4,1.4-5.7
		c0-1.7-0.2-3.5-0.7-5.2c-0.6-1.3-2-2.2-3.4-2.3c-1.2-0.1-3.2-0.4-5.4-0.5c-2.4-0.1-4.7-1.2-6.3-3c-1-1.2-2.3-3-2.3-8.4
		s1.4-8.6,2.9-10c1.4-1.3,3.2-2.1,5.1-2.4c1.6-0.2,3.2-0.3,4.8-0.3l9.6,0.3v4.2c0,0-7-0.3-8.5-0.3c-3.4,0-4.4,0.7-5.6,2.1
		c-0.8,1.3-1.3,2.8-1.3,4.3c0,1.7,0.2,3.4,0.7,5c0.6,1.3,2,2.2,3.4,2.3c1.2,0.1,3.2,0.3,5.4,0.5c2.4,0.1,4.7,1.2,6.3,3
		c1,1.2,2.4,3.7,2.4,9.2c0,5.5-1.4,9.4-2.9,10.8c-1.4,1.3-3.2,2.1-5.1,2.3c-1.6,0.2-3.2,0.3-4.9,0.3L312,497.6"/>
	<path id="path3011" class="st4" d="M349.4,458.1h-6.9v32.2c0,0,0.2,3,0.3,4c0.2,1,1.7,3.5,5.6,3.5l7.1-0.1v-4.1
		c0,0-1.9,0.1-3.1,0.1s-2.6-0.1-2.9-2.1c-0.2-1.4-0.3-2.9-0.3-4.4v-19h7.7v-4.1h-7.7L349.4,458.1"/>
	<path id="path3013" class="st4" d="M415.6,497.8h6.9v-33.7h-6.9V497.8L415.6,497.8z"/>
	<path id="path3015" class="st4" d="M415.6,460h6.9v-6.1h-6.9V460z"/>
	<path id="path3017" class="st4" d="M444.1,463.9c4.7,0,8.3,1,10.2,2.6s4.4,4.9,4.4,14.5c0,9.6-2.4,12.9-4.4,14.5
		c-2,1.6-5.6,2.6-10.2,2.6c-4.7,0-8.3-1-10.2-2.6c-2-1.6-4.4-4.9-4.4-14.5c0-9.6,2.4-12.9,4.4-14.5
		C435.8,464.9,439.5,463.9,444.1,463.9z M439.4,470.3c-1,1.2-2.1,3.6-2.1,10.7s1.1,9.5,2.1,10.7c2.8,2.6,7.1,2.6,9.8,0
		c1-1.2,2.1-3.6,2.1-10.7c0-7.1-1.2-9.5-2.1-10.7C446.5,467.8,442.2,467.8,439.4,470.3"/>
	<path id="path3019" class="st4" d="M472.9,468.9l6.7-0.3c1.8,0,3.8,0.5,4.8,1.7c1.1,1.4,1.6,3.2,1.5,4.9v22.5h6.9v-23.1
		c0-4.4-1.3-6.9-3.4-8.5c-2.9-2.3-8-2.1-8-2.1l-15.4,0.3v33.4h6.8L472.9,468.9"/>
	<path id="path3021" class="st4" d="M401.9,458.1h-6.8v32.2c0,0,0.2,3,0.3,4c0.2,1,1.7,3.5,5.6,3.5l7.1-0.1v-4.1
		c0,0-1.9,0.1-3.1,0.1c-1.2,0-2.6-0.1-2.9-2.1c-0.2-1.4-0.2-2.9-0.2-4.4v-19h7.7v-4.1h-7.7L401.9,458.1"/>
	<path id="path3023" class="st4" d="M264.6,475.3c0.1-1.8-0.4-3.5-1.5-4.9c-1-1.3-3.1-1.7-4.8-1.7l-9,0.3v-4.4l10.9-0.3
		c0,0,5.2-0.2,8,2.1c2,1.6,3.3,4.1,3.3,8.5v22.8l-13.1,0.3c0,0-5.9,0-8.9-1.2c-3-1.2-4.5-4.4-4.5-9c0-4.4,1.3-6.9,3.3-8.5
		c2.9-2.3,8-2.1,8-2.1h4.2v3.8h-2.4c-1.8,0-3.6,0.3-4.6,1.6c-1.1,1.3-1.6,2.9-1.4,4.5c0,3,0.6,4.4,2,5.4c1.3,1,3.5,1.1,6,1.1
		l4.5-0.3L264.6,475.3"/>
	<path id="path3025" class="st4" d="M380.2,475.3c0.1-1.8-0.4-3.5-1.5-4.9c-1-1.3-3.1-1.7-4.8-1.7l-9,0.3v-4.4l10.9-0.3
		c0,0,5.1-0.2,8,2.1c2,1.6,3.3,4.1,3.3,8.5v22.8l-13.1,0.3c0,0-6,0-8.9-1.2c-3-1.2-4.5-4.4-4.5-9c0-4.4,1.4-6.9,3.3-8.5
		c2.9-2.3,8-2.1,8-2.1h4.2v3.8h-2.4c-1.8,0-3.6,0.3-4.6,1.6c-1.1,1.3-1.6,2.9-1.5,4.5c0,3,0.6,4.4,2,5.4c1.2,1,3.5,1.1,6,1.1
		l4.5-0.3L380.2,475.3"/>
	<path id="path3027" class="st4" d="M505.3,498.1c3.7,0,6.7-3,6.7-6.7c0-3.7-3-6.7-6.7-6.7c-3.7,0-6.7,3-6.7,6.7
		c0,1.8,0.7,3.5,2,4.8C501.9,497.4,503.6,498.1,505.3,498.1z M499.7,491.4c0-3.1,2.5-5.6,5.6-5.6c3.1,0,5.6,2.5,5.6,5.6
		c0,3.1-2.5,5.6-5.6,5.6c-1.5,0-2.9-0.6-3.9-1.6C500.3,494.3,499.7,492.9,499.7,491.4"/>
	<path id="path3029" class="st4" d="M508.6,494.5c-0.1-0.1-0.2-0.2-0.2-0.3c0-0.2-0.1-0.4-0.1-0.6v-1c0-0.3-0.1-0.7-0.3-1
		c-0.1-0.2-0.3-0.3-0.4-0.4c0.2-0.1,0.4-0.3,0.6-0.5c0.2-0.3,0.3-0.7,0.3-1.1c0.1-0.8-0.4-1.5-1.1-1.8c-0.4-0.2-0.9-0.3-1.4-0.2
		h-3.5v7.5h1.3V492h2c0.3,0,0.5,0,0.8,0.1c0.3,0.2,0.4,0.5,0.4,0.8l0.1,1.2c0,0.2,0,0.4,0,0.6c0,0.1,0.1,0.2,0.1,0.3l0.1,0.1h1.4
		L508.6,494.5L508.6,494.5L508.6,494.5z M507.1,489.7c0,0.3-0.1,0.6-0.3,0.8c-0.3,0.2-0.6,0.3-1,0.2h-2v-2.1h2.2
		c0.2,0,0.5,0,0.7,0.1C507,489,507.2,489.4,507.1,489.7"/>
	<path id="path3031" class="st4" d="M554.4,459.6c0.1,5.1-0.2,7.7-1.9,10.3c-1.5,2.2-4.5,4.3-11,4.3l-8.1-0.2
		c-1.3,0-4.6,0.4-6.2,2.1c-1.4,1.4-1.4,2.5-1.6,6.4v11.4h27.7v5.6H523h-1.4c-2.2,0.1-4-1.6-4.1-3.8c0-0.1,0-0.2,0-0.4v-8.5
		c0.1-9.9,0.9-11.3,3-13.9c1.5-1.8,5-3.8,9.2-4c1.5-0.1,3.1-0.1,4.6-0.1c1.6,0,3.2,0.1,3.9,0.1c3.8,0,5.1-0.6,6.2-2
		c1.2-1.5,1.8-3.3,1.8-6.3c0-2.7-0.6-5.4-1.6-6.6c-1.3-1.4-2.5-2.3-6-2.3c-8.9,0-19.4,0.2-19.4,0.2v-5.2c0,0,10.2-0.5,20.6-0.6
		c6.5-0.1,10.1,1.6,11.9,4C553.6,452.3,554.3,454.7,554.4,459.6"/>
</g>
</svg>
