<?xml version="1.0" encoding="utf-8"?>
<!-- Generator: Adobe Illustrator 28.2.0, SVG Export Plug-In . SVG Version: 6.00 Build 0)  -->
<svg version="1.1" id="Layer_1" xmlns="http://www.w3.org/2000/svg" xmlns:xlink="http://www.w3.org/1999/xlink" x="0px" y="0px"
	 viewBox="0 0 409.3 77.9" style="enable-background:new 0 0 409.3 77.9;" xml:space="preserve">
<style type="text/css">
	.st0{fill:#FFFFFF;}
	.st1{fill:#0071BA;}
</style>
<g>
	<g>
		<g>
			<path class="st0" d="M241,2.4c9.6-3.8,21.3-3.2,29.8,2.9c6.1,4.3,9.6,11.4,10.8,18.7c-5.5-1.1-11-1.8-16.5-2.5
				c-2.4-6.6-10.4-9.8-16.8-7c-2.5,1-4.3,3.1-5.9,5.2c-5.4-0.3-10.8-0.6-16.1-0.5C228.2,11.7,234,5.5,241,2.4z"/>
			<path class="st0" d="M0,0.7c9.8-0.1,19.6,0,29.5,0c7.8,0.1,15.9,3,20.6,9.5c7.1,8.4,5.4,20.1,5.7,30.3l-15.2,4.1
				c-0.1-7,0.4-14.1-0.9-21.1c-1-5.2-6-8.9-11.2-9.2c-4.4-0.2-8.8,0-13.1-0.1c0,12.8,0,25.6,0,38.4C10.2,54.4,5.1,56.3,0,58.3
				C0,39.1,0.1,19.9,0,0.7z"/>
			<path class="st0" d="M69.3,0.7h15.2c-0.1,11.1,0.1,22.3-0.1,33.4c-5.1,0.9-10.1,2-15.1,3.2C69.2,25.1,69.3,12.9,69.3,0.7z"/>
			<path class="st0" d="M99.3,0.7h30.2c5.7-0.1,11.4,1.6,16,5.1c5.3,4.3,8.5,10.7,8.5,17.6c-5,0.5-9.9,1.2-14.9,1.7
				c-0.2-4.6-2.7-9.5-7.6-10.5c-5.7-0.9-11.5-0.2-17.2-0.4v14.4c-5,0.9-10,1.7-15,2.6L99.3,0.7z"/>
			<path class="st0" d="M166.5,0.7H217v13.5h-35.3v6.5c-5.1,0.5-10.2,0.9-15.3,1.3L166.5,0.7z"/>
		</g>
		<g>
			<path class="st1" d="M285.3,0.7c18.3,0,36.7,0,55,0c-0.1,4.5,0.1,9.1-0.1,13.6c-6.6-0.2-13.2-0.1-19.9-0.1c0,21,0,42,0,63
				c-5,0-10,0-15,0c-0.1-21,0.1-42-0.1-63c-6.6,0.1-13.3,0.1-19.9,0C285.3,9.7,285.3,5.2,285.3,0.7z"/>
			<path class="st1" d="M347.3,0.7c5.3,0,10.5,0,15.8,0.1c5,16.4,10,32.8,15.1,49.1c5.2-16.4,10.1-32.8,15.2-49.2h15.8
				c-8.5,25.5-16.9,51-25.4,76.5h-11.4C364.1,51.7,355.7,26.2,347.3,0.7z"/>
			<path class="st1" d="M225.2,24.7c5.1,0.2,10.2,0.3,15.3,0.6c-0.3,7.5-0.3,15-0.2,22.4c0.3,4.3,0.5,9.3,3.6,12.6
				c4.7,5.5,14.4,5.4,18.9-0.3c1.6-1.8,2.4-4.2,3.1-6.5c5.2,0,10.4,0,15.7,0c-1.1,7.7-5.1,15.2-11.7,19.6
				c-14.1,9.8-37.3,4.4-43.1-12.4C223.6,48.9,224.9,36.6,225.2,24.7z"/>
			<path class="st1" d="M166.5,28.1c5.1-0.6,10.2-1.1,15.2-1.6v5.2h30v13.8h-30v18H217v13.7c-16.8,0-33.7,0-50.5,0L166.5,28.1z"/>
			<path class="st1" d="M99.3,40.7c17.9-4.6,36-8.2,54.2-10.7c-1.8,6.6-6.7,11.9-13.1,14.3c5.3,11.2,11.3,21.9,16.8,33h-17.6
				c-4.9-10.2-9.9-20.4-14.9-30.5h-10.5c0,10.2,0,20.3,0,30.5c-5,0-10,0-15,0C99.3,65,99.3,52.8,99.3,40.7z"/>
			<path class="st1" d="M69.2,49.5c5.1-1.7,10.2-3.3,15.3-4.8v32.5H69.3C69.3,68,69.3,58.7,69.2,49.5z"/>
			<path class="st1" d="M6.2,77.2C21.7,68,38.4,60.7,55.3,54.4c-0.8,6.1-3.3,12-8,16.2c-5,4.7-12,6.6-18.7,6.7
				C21.1,77.2,13.7,77.2,6.2,77.2z"/>
		</g>
	</g>
</g>
</svg>
