<svg xmlns="http://www.w3.org/2000/svg" viewBox="0 0 841.5 263">
  <path fill="white" d="M42.8,263C19.2,263,0,243.8,0,220.2V42.8C0,19.2,19.2,0,42.8,0c23.6,0,42.8,19.2,42.8,42.8v177.4C85.6,243.8,66.4,263,42.8,263z"/>
  <path fill="white" d="M128.4,179.5c-23.6,0-42.8-19.2-42.8-42.8V42.8C85.6,19.2,104.7,0,128.4,0c23.6,0,42.8,19.2,42.8,42.8v93.9C171.1,160.3,152,179.5,128.4,179.5z"/>
  <path fill="white" d="M213.9,263c-23.6,0-42.8-19.2-42.8-42.8V42.8c0-23.6,19.2-42.8,42.8-42.8c23.6,0,42.8,19.2,42.8,42.8v177.4C256.7,243.8,237.5,263,213.9,263z"/>
  <path fill="white" d="M303.5,263c-23.6,0-42.8-19.2-42.8-42.8V42.8c0-23.6,19.2-42.8,42.8-42.8c23.6,0,42.8,19.2,42.8,42.8v177.4C346.3,243.8,327.1,263,303.5,263z"/>
  <path fill="white" d="M389.1,179.5c-23.6,0-42.8-19.2-42.8-42.8V42.8c0-23.6,19.2-42.8,42.8-42.8c23.6,0,42.8,19.2,42.8,42.8v93.9C431.8,160.3,412.7,179.5,389.1,179.5z"/>
  <path fill="white" d="M474.6,263c-23.6,0-42.8-19.2-42.8-42.8V42.8C431.8,19.2,451,0,474.6,0c23.6,0,42.8,19.2,42.8,42.8v177.4C517.4,243.8,498.2,263,474.6,263z"/>
  <path fill="white" d="M549.1,263c-15.3,0-27.7-12.4-27.7-27.7V27.7c0-15.3,12.4-27.7,27.7-27.7c72.6,0,131.5,58.9,131.5,131.5C680.6,204.1,621.7,263,549.1,263z"/>
  <path fill="white" d="M775.8,131.5h-65.2c-15.6,0-28.2-12.6-28.2-28.2v-75C682.3,12.6,695,0,710.6,0l65.2,0c36.3,0,65.7,29.4,65.7,65.7C841.5,102.1,812.1,131.5,775.8,131.5z"/>
  <path fill="white" d="M775.8,263h-65.2c-15.6,0-28.2-12.6-28.2-28.2v-75c0-15.6,12.6-28.2,28.2-28.2h65.2c36.3,0,65.7,29.4,65.7,65.7C841.5,233.5,812.1,263,775.8,263z"/>
</svg>
